<svg viewBox="0 0 212 123" fill="none" xmlns="http://www.w3.org/2000/svg">
    <path d="M17.472 94V49.264L63.936 97.936V29.968H54.144V74.32L7.68 25.648V94H17.472ZM91.305 52.528C79.113 52.528 69.705 61.36 69.705 73.84C69.705 86.224 79.113 95.248 91.305 95.248C103.497 95.248 112.905 86.224 112.905 73.84C112.905 61.36 103.497 52.528 91.305 52.528ZM91.305 86.8C83.913 86.8 79.305 81.712 79.305 73.936C79.305 64.72 85.353 60.976 91.305 60.976C97.257 60.976 103.305 64.72 103.305 73.936C103.305 81.712 98.697 86.8 91.305 86.8ZM133.859 62.224V53.584H126.659V38.8H117.251V53.584H113.315V62.224H117.251V94H126.659V62.224H133.859ZM162.773 80.368C161.909 81.904 160.661 83.536 159.029 84.784C157.109 86.224 155.189 86.8 152.597 86.8C150.293 86.8 147.605 86.416 145.397 84.208C143.381 82.192 142.133 78.928 141.941 76.048H170.933V74.896C170.933 70.672 170.453 63.184 165.269 57.808C162.869 55.312 158.741 52.528 152.309 52.528C146.549 52.528 142.133 54.64 138.773 58C134.549 62.32 132.341 68.368 132.341 74.608C132.341 80.656 134.453 86.224 138.293 90.064C142.133 93.904 146.549 95.248 151.925 95.248C156.245 95.248 160.565 94.288 163.829 92.176C166.421 90.544 168.917 87.856 170.645 84.784L162.773 80.368ZM142.613 68.368C143.093 66.352 144.149 64.432 145.493 63.184C146.741 61.936 148.853 60.592 152.117 60.592C155.189 60.592 157.205 61.744 158.453 62.896C159.893 64.24 160.949 66.16 161.333 68.368H142.613Z" fill="black"/>
    <path d="M176.734 29.968V94H186.526V29.968H176.734ZM211.267 62.224V53.584H204.067V38.8H194.659V53.584H190.723V62.224H194.659V94H204.067V62.224H211.267Z" fill="#1B7D7C"/>
    <path d="M107.859 41.5468V53.9527C107.884 54.211 107.992 54.4495 108.161 54.6227C108.33 54.7959 108.549 54.8917 108.776 54.8917C109.003 54.8917 109.222 54.7959 109.391 54.6227C109.56 54.4495 109.668 54.211 109.693 53.9527V40.8604L111.421 40.3353C111.75 40.167 112.025 39.8866 112.21 39.5324C112.394 39.1783 112.478 38.7675 112.451 38.3564C112.424 37.9452 112.287 37.5536 112.059 37.235C111.83 36.9164 111.521 36.6864 111.174 36.5763L91.3782 33.3872C91.0326 33.3319 90.6817 33.3343 90.3367 33.3944L72.5112 36.4956C72.1418 36.6322 71.8197 36.8994 71.5913 37.2589C71.3628 37.6183 71.2397 38.0515 71.2397 38.4962C71.2397 38.9408 71.3628 39.374 71.5913 39.7334C71.8197 40.0929 72.1418 40.3601 72.5112 40.4967L90.0451 45.4407C90.5784 45.5907 91.1343 45.6012 91.6716 45.4714L107.859 41.5468Z" fill="#1B7D7C" stroke="#1B7D7C" stroke-miterlimit="10"/>
    <path d="M77.5913 55.5058C77.5911 55.6069 77.6117 55.7065 77.6512 55.7952C77.6906 55.8839 77.7476 55.959 77.8169 56.0134C81.7331 59.0937 86.2771 60.7521 90.9261 60.7979C95.5751 60.8437 100.14 59.2749 104.096 56.2721C104.167 56.2184 104.226 56.1431 104.267 56.0534C104.307 55.9638 104.329 55.8628 104.329 55.7602V44.2492L91.7902 47.6926C91.2476 47.841 90.6846 47.8354 90.1441 47.6762L77.5913 43.9718V55.5058Z" fill="#1B7D7C" stroke="#EDEDED" stroke-width="2" stroke-miterlimit="10"/>
</svg>
